<svg width="1800" height="1080" viewBox="0 0 1800 1080" fill="none" xmlns="http://www.w3.org/2000/svg">
  <rect width="1800" height="1080" fill="#F5F0E7"/>
  <rect width="1800" height="1080" fill="url(#sky)"/>
  <path d="M0 706C183 675 376 677 570 716C760 754 949 798 1144 813C1342 829 1554 810 1800 752V1080H0V706Z" fill="#CEBE9F"/>
  <path d="M0 858C176 836 361 845 548 879C733 913 915 947 1106 957C1317 969 1534 949 1800 905V1080H0V858Z" fill="#708061"/>
  <path d="M0 942C205 939 391 956 577 989C764 1021 937 1024 1114 1010C1317 994 1539 964 1800 930V1080H0V942Z" fill="#4D5944"/>
  <path d="M358 720C372 654 397 597 438 547C477 501 528 468 589 450C628 439 666 440 699 457C726 471 743 494 748 524C753 555 744 582 724 603C692 636 661 679 630 736H358V720Z" fill="#D8CAB1"/>
  <path d="M1180 747C1213 693 1248 649 1294 617C1331 591 1373 571 1422 564C1460 559 1494 566 1522 585C1546 601 1559 624 1560 652C1561 680 1550 704 1528 720C1491 745 1454 779 1417 822H1180V747Z" fill="#CBB58B"/>
  <path d="M827 442L874 356L912 442L964 457L923 502L934 567L874 536L814 567L825 502L784 457L827 442Z" fill="#F4E8D4"/>
  <path d="M885 594C874 594 866 603 866 614V743L813 822C792 853 783 891 787 927L798 1000H871L858 920C856 902 861 884 873 870L924 812C939 796 948 774 948 752V614C948 603 940 594 929 594H885Z" fill="#3E4538"/>
  <rect x="0" y="1000" width="1800" height="80" fill="#2E342A"/>
  <rect x="116" y="86" width="1568" height="908" rx="24" stroke="#C9BA9E" stroke-width="2" stroke-opacity="0.78"/>
  <defs>
    <linearGradient id="sky" x1="900" y1="0" x2="900" y2="655" gradientUnits="userSpaceOnUse">
      <stop stop-color="#FBF8F2"/>
      <stop offset="0.54" stop-color="#E5DACA"/>
      <stop offset="1" stop-color="#D9C9AF"/>
    </linearGradient>
  </defs>
</svg>
