<svg width="1800" height="1080" viewBox="0 0 1800 1080" fill="none" xmlns="http://www.w3.org/2000/svg">
  <rect width="1800" height="1080" fill="#F3EEE5"/>
  <rect width="1800" height="1080" fill="url(#sky)"/>
  <path d="M0 710C154 660 335 633 523 638C728 644 915 693 1122 716C1322 739 1533 730 1800 674V1080H0V710Z" fill="#CFBE9B"/>
  <path d="M0 830C222 792 396 804 571 846C744 888 904 931 1074 949C1278 971 1491 946 1800 877V1080H0V830Z" fill="#7A8766"/>
  <path d="M0 925C181 918 372 935 553 969C730 1002 899 1017 1071 1010C1291 1001 1518 966 1800 918V1080H0V925Z" fill="#556047"/>
  <path d="M1260 660C1288 586 1326 520 1381 462C1423 418 1472 389 1537 374C1592 361 1646 362 1702 381C1749 396 1782 422 1800 452V741C1740 764 1677 779 1608 787C1520 798 1424 786 1336 748C1306 735 1281 708 1260 660Z" fill="#DCC8A8"/>
  <path d="M325 686C355 618 387 560 430 514C465 475 500 450 542 440C575 432 606 436 631 454C651 469 661 490 659 516C658 544 642 568 617 581C591 596 568 621 549 655C531 688 516 724 503 767H325V686Z" fill="#E4D8C4"/>
  <path d="M905 760C928 704 953 656 986 620C1015 589 1048 566 1090 557C1121 550 1150 554 1172 571C1190 586 1198 608 1194 631C1189 656 1173 676 1149 689C1116 707 1086 735 1058 776H905V760Z" fill="#D7C4A2"/>
  <rect x="115" y="86" width="1570" height="908" rx="24" stroke="#C9BA9E" stroke-width="2" stroke-opacity="0.78"/>
  <defs>
    <linearGradient id="sky" x1="900" y1="0" x2="900" y2="654" gradientUnits="userSpaceOnUse">
      <stop stop-color="#FBF8F1"/>
      <stop offset="0.5" stop-color="#E8DDCA"/>
      <stop offset="1" stop-color="#DFCDAF"/>
    </linearGradient>
  </defs>
</svg>
