<svg width="1600" height="1000" viewBox="0 0 1600 1000" fill="none" xmlns="http://www.w3.org/2000/svg">
  <rect width="1600" height="1000" fill="#F3EEE4"/>
  <rect width="1600" height="1000" fill="url(#g5)"/>
  <path d="M0 634C223 583 433 578 626 617C822 657 1006 740 1190 768C1365 795 1508 775 1600 748V1000H0V634Z" fill="#C1B39B"/>
  <path d="M0 747C186 720 387 727 582 772C778 817 976 893 1169 915C1361 938 1510 921 1600 900V1000H0V747Z" fill="#87966F"/>
  <path d="M0 851C218 839 423 853 630 901C838 950 1036 993 1250 1000H0V851Z" fill="#4E5C46"/>
  <path d="M997 668C1058 632 1136 614 1211 623C1297 633 1370 678 1426 754C1449 785 1431 829 1397 840C1337 859 1256 869 1181 869C1099 869 1009 856 930 816C902 802 887 769 893 735C899 705 928 681 997 668Z" fill="#D5CDBD"/>
  <path d="M1245 640C1228 578 1212 530 1188 488" stroke="#3F483A" stroke-width="9" stroke-linecap="round"/>
  <path d="M1187 488C1167 453 1141 424 1108 402" stroke="#3F483A" stroke-width="9" stroke-linecap="round"/>
  <rect x="362" y="428" width="276" height="268" rx="24" fill="#E8DFD0"/>
  <rect x="406" y="470" width="188" height="184" rx="16" fill="#F6F1E8"/>
  <path d="M488 560L540 610L618 510" stroke="#718060" stroke-width="18" stroke-linecap="round" stroke-linejoin="round"/>
  <rect x="54" y="54" width="1492" height="892" rx="22" stroke="#C4B59D" stroke-width="2" stroke-opacity="0.74"/>
  <defs>
    <linearGradient id="g5" x1="800" y1="0" x2="800" y2="610" gradientUnits="userSpaceOnUse">
      <stop stop-color="#F7F3E9"/>
      <stop offset="1" stop-color="#E5D9C4"/>
    </linearGradient>
  </defs>
</svg>
