<svg width="1800" height="1080" viewBox="0 0 1800 1080" fill="none" xmlns="http://www.w3.org/2000/svg">
  <rect width="1800" height="1080" fill="#F7F1E7"/>
  <rect width="1800" height="1080" fill="url(#sky)"/>
  <path d="M0 614C145 587 287 576 436 584C598 594 743 629 897 637C1065 645 1218 617 1376 603C1537 589 1683 595 1800 620V1080H0V614Z" fill="#BFD2D2"/>
  <path d="M0 706C173 674 322 666 479 684C658 705 792 759 958 780C1126 802 1280 789 1436 756C1581 726 1708 699 1800 699V1080H0V706Z" fill="#D6BF9A"/>
  <path d="M0 821C149 796 313 792 471 824C656 861 828 920 1010 942C1164 960 1329 951 1496 924C1632 903 1734 875 1800 860V1080H0V821Z" fill="#77866C"/>
  <path d="M0 918C152 903 308 913 471 949C641 986 781 1017 947 1028C1145 1041 1329 1018 1504 984C1636 958 1738 930 1800 909V1080H0V918Z" fill="#4E5E4F"/>
  <path d="M190 694C274 620 344 552 416 507C481 468 555 436 616 440C655 443 683 466 688 497C694 532 671 561 636 573C580 592 533 625 490 666C451 703 420 747 391 797H190V694Z" fill="#425346"/>
  <path d="M552 726C631 651 701 590 777 551C861 507 954 485 1032 490C1079 493 1111 525 1110 565C1108 602 1079 633 1035 641C969 653 903 680 846 721C788 763 737 825 691 894H552V726Z" fill="#6B7D69"/>
  <path d="M1018 730C1099 671 1187 635 1266 620C1379 599 1485 615 1585 676C1646 713 1696 765 1743 833H1018V730Z" fill="#36463E"/>
  <circle cx="1381" cy="220" r="118" fill="#E2C38F" fill-opacity="0.78"/>
  <rect x="62" y="64" width="1676" height="952" rx="24" stroke="#C7B59A" stroke-width="2" stroke-opacity="0.8"/>
  <defs>
    <linearGradient id="sky" x1="900" y1="0" x2="900" y2="642" gradientUnits="userSpaceOnUse">
      <stop stop-color="#FBF6EF"/>
      <stop offset="0.54" stop-color="#ECDCC4"/>
      <stop offset="1" stop-color="#E3D1B4"/>
    </linearGradient>
  </defs>
</svg>
