<svg width="1600" height="1000" viewBox="0 0 1600 1000" fill="none" xmlns="http://www.w3.org/2000/svg">
  <rect width="1600" height="1000" fill="#F5F0E6"/>
  <rect width="1600" height="1000" fill="url(#sky)"/>
  <path d="M0 676C171 635 332 622 498 637C650 650 793 691 950 704C1137 720 1305 693 1469 664C1517 655 1561 650 1600 650V1000H0V676Z" fill="#CDB48D"/>
  <path d="M0 791C190 769 357 780 521 821C691 864 849 917 1014 936C1206 958 1407 933 1600 886V1000H0V791Z" fill="#7F8E73"/>
  <path d="M0 888C143 884 302 900 458 934C620 970 773 1001 926 1010C1111 1021 1301 999 1490 964C1532 956 1569 947 1600 938V1000H0V888Z" fill="#546147"/>
  <path d="M246 731C309 710 363 701 424 701C503 701 576 719 651 755L707 784H246V731Z" fill="#3C4B43"/>
  <rect x="639" y="704" width="211" height="51" rx="10" fill="#2F3A35"/>
  <rect x="676" y="677" width="104" height="36" rx="8" fill="#495852"/>
  <circle cx="691" cy="768" r="30" fill="#24302B"/>
  <circle cx="801" cy="768" r="30" fill="#24302B"/>
  <path d="M1130 554C1130 495 1178 447 1237 447C1296 447 1344 495 1344 554V589H1130V554Z" fill="#46574F"/>
  <rect x="1228" y="446" width="14" height="190" fill="#46574F"/>
  <path d="M1213 472C1213 439 1240 412 1273 412C1306 412 1333 439 1333 472V484H1213V472Z" fill="#D7C2A0"/>
  <circle cx="1258" cy="243" r="96" fill="#E5C588" fill-opacity="0.74"/>
  <rect x="58" y="58" width="1484" height="884" rx="22" stroke="#CBB89D" stroke-width="2" stroke-opacity="0.78"/>
  <defs>
    <linearGradient id="sky" x1="800" y1="0" x2="800" y2="650" gradientUnits="userSpaceOnUse">
      <stop stop-color="#FAF5EE"/>
      <stop offset="0.56" stop-color="#EADCC3"/>
      <stop offset="1" stop-color="#DFCBAA"/>
    </linearGradient>
  </defs>
</svg>
