<svg width="1600" height="1000" viewBox="0 0 1600 1000" fill="none" xmlns="http://www.w3.org/2000/svg">
  <rect width="1600" height="1000" fill="#1F2226"/>
  <rect width="1600" height="1000" fill="url(#g2)"/>
  <path d="M0 707C202 667 401 654 592 678C777 701 945 757 1113 780C1287 804 1452 795 1600 763V1000H0V707Z" fill="#4E433E"/>
  <path d="M0 822C215 801 432 814 638 859C833 901 1016 956 1205 976C1363 993 1496 987 1600 968V1000H0V822Z" fill="#231F1F"/>
  <rect x="212" y="474" width="1176" height="324" rx="24" fill="#342E2F"/>
  <rect x="259" y="519" width="1082" height="174" rx="16" fill="#484040"/>
  <circle cx="401" cy="430" r="34" fill="#DFA97B" fill-opacity="0.65"/>
  <circle cx="508" cy="403" r="20" fill="#D1806A" fill-opacity="0.6"/>
  <circle cx="1184" cy="421" r="31" fill="#E1C0A5" fill-opacity="0.55"/>
  <circle cx="1286" cy="393" r="18" fill="#B39EC7" fill-opacity="0.5"/>
  <rect x="362" y="577" width="212" height="18" rx="9" fill="#DCC0A5"/>
  <rect x="628" y="577" width="165" height="18" rx="9" fill="#DCC0A5"/>
  <rect x="847" y="577" width="198" height="18" rx="9" fill="#DCC0A5"/>
  <rect x="1098" y="577" width="111" height="18" rx="9" fill="#DCC0A5"/>
  <rect x="454" y="631" width="62" height="62" rx="12" fill="#CE6D5B"/>
  <rect x="721" y="631" width="62" height="62" rx="12" fill="#85A3B1"/>
  <rect x="973" y="631" width="62" height="62" rx="12" fill="#9D8AB8"/>
  <rect x="58" y="58" width="1484" height="884" rx="22" stroke="#6B5F58" stroke-width="2" stroke-opacity="0.74"/>
  <defs>
    <linearGradient id="g2" x1="800" y1="0" x2="800" y2="660" gradientUnits="userSpaceOnUse">
      <stop stop-color="#292D34"/>
      <stop offset="1" stop-color="#423631"/>
    </linearGradient>
  </defs>
</svg>
